<?xml version="1.0" standalone="no"?>
<!DOCTYPE svg PUBLIC "-//W3C//DTD SVG 20010904//EN"
 "http://www.w3.org/TR/2001/REC-SVG-20010904/DTD/svg10.dtd">
<svg version="1.0" xmlns="http://www.w3.org/2000/svg"
 width="567.000000pt" height="496.000000pt" viewBox="0 0 567.000000 496.000000"
 preserveAspectRatio="xMidYMid meet">

<g transform="translate(0.000000,496.000000) scale(0.100000,-0.100000)"
fill="#000000" stroke="none">
<path d="M1902 4595 c-502 -201 -921 -371 -932 -377 -37 -23 -47 -72 -74 -338
-89 -901 -125 -1678 -97 -2064 26 -348 58 -430 246 -625 223 -231 593 -499
1160 -838 442 -264 586 -343 629 -343 44 0 159 62 551 298 874 526 1361 924
1435 1172 92 306 72 1241 -50 2425 -26 251 -28 260 -55 287 -24 25 -1846 768
-1882 768 -10 0 -429 -164 -931 -365z m1782 -215 c461 -187 840 -341 842 -343
6 -5 40 -342 63 -622 82 -972 84 -1744 4 -1898 -91 -179 -500 -504 -1124 -894
-159 -100 -456 -276 -584 -348 l-51 -28 -179 103 c-837 480 -1355 849 -1538
1098 -54 74 -62 99 -81 252 -40 317 -25 899 45 1730 23 282 57 612 63 618 9 8
1671 670 1686 671 8 1 393 -152 854 -339z"/>
<path d="M2630 4305 c-234 -111 -209 -88 -212 -195 l-3 -91 -124 -54 c-68 -30
-128 -55 -133 -55 -4 0 -8 34 -8 75 0 110 -2 110 -202 17 -179 -83 -195 -94
-209 -130 -7 -18 -109 -1010 -109 -1057 0 -3 -43 -5 -95 -5 -144 0 -135 22
-135 -325 l0 -285 40 0 c22 0 40 -5 40 -10 0 -6 -25 -125 -55 -265 -30 -141
-55 -264 -55 -274 0 -33 304 -342 435 -442 157 -121 414 -271 780 -456 l250
-126 250 126 c368 186 613 329 777 454 155 118 438 407 438 447 0 12 -25 135
-55 274 -30 139 -55 257 -55 262 0 6 18 10 40 10 l40 0 0 285 c0 347 9 325
-135 325 -52 0 -95 4 -95 8 0 50 -112 1046 -119 1059 -17 33 -45 50 -181 113
-207 96 -196 92 -214 74 -12 -11 -16 -35 -16 -85 0 -38 -3 -69 -7 -69 -4 0
-62 24 -130 53 l-123 52 0 81 c0 63 -4 86 -17 102 -10 11 -96 57 -192 101
-133 62 -184 81 -215 80 -29 -1 -87 -22 -196 -74z m570 -921 c115 -17 294 -61
381 -93 l56 -21 -12 -61 c-7 -34 -17 -65 -22 -70 -5 -5 -37 -2 -78 7 -83 18
-510 31 -565 17 -25 -6 -36 -16 -38 -31 -4 -27 81 -167 115 -189 16 -11 64
-19 136 -25 138 -10 265 -32 354 -59 86 -27 146 -83 165 -152 l12 -47 118 7
118 6 0 -52 c0 -32 -5 -53 -12 -56 -18 -5 -842 -64 -846 -60 -2 2 17 24 43 49
42 43 46 50 43 89 l-3 42 -330 0 -330 0 -3 -24 c-6 -41 9 -75 50 -113 23 -21
39 -40 37 -42 -5 -4 -827 53 -846 59 -8 3 -13 24 -13 56 l0 52 110 -6 c99 -5
110 -4 110 11 1 31 36 96 70 129 62 61 199 100 391 112 200 13 210 21 299 226
33 76 60 140 60 143 0 3 -69 2 -152 -1 -171 -5 -306 -35 -468 -100 -57 -23
-90 -32 -101 -26 -14 7 -34 77 -25 87 21 20 320 99 481 127 218 37 481 40 695
9z m-339 -1153 l22 -103 91 6 c196 13 538 27 543 22 3 -3 -1 -40 -8 -83 l-14
-78 -660 0 -659 0 -14 79 c-7 43 -11 81 -8 83 4 4 360 -11 542 -23 l92 -6 10
49 c6 26 15 74 22 106 6 32 13 57 16 55 2 -2 13 -50 25 -107z m-977 -111 c32
-80 91 -166 166 -240 56 -57 166 -140 184 -140 3 0 6 18 6 40 l0 40 595 0 595
0 0 -40 c0 -22 2 -40 5 -40 3 0 29 15 58 33 122 79 232 207 289 335 26 59 36
72 52 70 49 -7 66 -218 27 -339 -51 -162 -220 -321 -403 -380 -178 -57 -380
-7 -546 135 -31 26 -64 46 -77 46 -14 0 -48 -21 -82 -50 -211 -181 -468 -203
-687 -60 -206 135 -301 316 -274 528 12 97 23 124 49 120 14 -2 27 -20 43 -58z"/>
</g>
</svg>
